<svg width="841" height="732" viewBox="0 0 841 732" fill="none" xmlns="http://www.w3.org/2000/svg">
<path fill-rule="evenodd" clip-rule="evenodd" d="M187.745 596.792C182.992 612.888 186.023 631.669 196.909 644.909C203.94 653.46 220.66 661.107 230.045 652.204C234.242 648.222 236.017 634.593 237.81 628.234C239.46 622.385 242.217 611.554 240.992 606.647C239.208 599.496 224.956 601.149 218.294 600.523C208.071 599.563 197.922 598.102 187.745 596.792ZM53.2573 604.968C51.0193 609.894 47.4492 613.158 45.9272 618.625C44.9322 622.195 44.3332 625.773 43.9402 629.437C43.4622 633.875 43.1362 633.705 46.1982 635.78C50.8702 638.947 62.8223 638.703 68.5073 639.621C75.9273 640.819 83.3112 642.23 90.7352 643.424C88.9362 636.515 89.8792 629.077 88.0192 622.03C86.2112 615.183 83.0643 608.423 78.6223 602.798C75.3173 598.612 70.5103 593.598 64.5673 593.572C56.9073 593.539 55.6963 599.602 53.2573 604.968ZM524.378 456.92C523.241 471.734 525.352 487.509 533.777 500.239C537.345 505.63 542.541 508.529 546.759 513.172C551.639 518.544 554.287 525.184 561.998 527.482C566.973 528.967 572.812 527.942 577.985 528.61C586.572 529.72 589.107 528.517 596.348 524.072C601.548 520.878 607.543 521.477 613.027 517.976C619.603 513.778 625.329 507.792 631.557 503.038C596.602 485.914 560.564 471.332 524.378 456.92ZM430.413 465.705C417.035 472 409.961 482.737 406.138 496.597C443.04 505.032 478.955 515.351 515.202 526.987C505.081 501.241 493.714 477.667 466.026 465.691C460.502 463.301 454.826 459.498 448.539 459.589C442.277 459.679 435.904 463.122 430.413 465.705ZM93.8333 503.872C74.8153 513.882 84.4832 545.872 91.1282 560.073C99.5862 553.852 108.453 547.793 116.712 541.735C125.739 535.113 133.855 526.59 142.09 519.047C137.73 516.773 134.896 513.156 130.843 510.558C126.83 507.987 122.849 507.803 118.353 506.798C109.746 504.873 102.78 499.161 93.8333 503.872ZM242.243 431.79C240.724 433.737 238.91 435.573 237.48 437.574C234.006 442.434 231.002 447.374 226.974 451.882C219.839 459.87 209.451 470.398 197.761 471.127L197.421 474.537C200.869 474.45 202.908 471.481 205.899 471.179C208.247 470.943 211.534 472.737 214.413 472.483C223.316 471.699 232.063 471.251 241.101 471.491C258.94 471.964 276.475 474.808 294.011 477.075C290.661 465.135 284.408 452.905 274.445 444.918C271.001 442.156 267.701 438.36 263.813 436.158C261.473 434.834 258.994 434.733 256.585 433.698C253.797 432.5 250.218 428.503 247.339 428.12C244.329 427.719 244.318 429.127 242.243 431.79ZM99.2922 432.878C89.9342 440.39 82.7443 449.921 75.0493 458.943C68.0843 467.109 58.6453 478.759 56.1693 489.272C68.5203 495.082 89.7042 489.764 97.6722 479.015C107.497 465.759 102.682 447.309 99.2922 432.878ZM313.499 390.045C315.342 402.502 321.329 416.382 330.316 425.683C334.191 429.694 337.586 434.923 341.988 438.431C347.737 443.011 352.364 440.664 359.036 441.375C366.202 442.137 370.846 446.813 378.483 445.544C383.923 444.639 388.933 441.627 394.046 440.714C399.631 439.714 404.506 440.306 410.058 437.541C416.925 434.123 422.404 427.396 427.744 422.288C424.933 420.062 419.257 419.902 415.661 418.699C410.911 417.109 406.167 415.534 401.391 414.011C391.525 410.866 381.687 407.654 371.802 404.562C352.975 398.672 333.096 393.079 313.499 390.045Z" fill="#DCBCFF"/>
<path fill-rule="evenodd" clip-rule="evenodd" d="M18.133 82.4917L18.748 86.6217C12.737 87.6577 12.56 84.0277 18.133 82.4917ZM44.29 75.3717C47.513 74.2477 52.784 75.8947 50.25 79.7437C46.673 85.1787 45.044 78.0847 44.29 75.3717ZM304.188 225.877C303.703 225.393 309.415 214.479 310.152 212.648C313.839 214.752 314.089 214.243 312.587 217.761C311.29 220.795 306.778 223.876 304.188 225.877ZM640.988 228.871C642.75 228.717 646.256 227.668 647.751 228.28C649.84 229.136 649.278 231.118 649.531 234.01C643.421 233.726 642.567 234.535 640.989 228.871H640.988ZM648.911 222.879L639.953 224.487C639.315 221.067 637.627 215.411 643.923 217.476C644.515 217.67 648.153 221.766 648.911 222.879ZM297.128 229.911C300.304 233.066 285.562 239.747 284.042 237.607C280.725 232.939 294.984 230.61 297.128 229.911ZM224.206 192.611L218.856 192.085C219.473 189.484 221.35 179.897 225.251 180.412C229.127 180.922 224.756 190.582 224.206 192.611ZM217.701 208.262C217.651 206.102 216.766 201.312 217.611 199.232C218.186 197.817 220.55 193.522 223.947 196.312C224.67 196.907 225.001 205.557 224.781 205.837C223.855 207.014 219.02 207.81 217.701 208.262ZM236.133 236.005C239.793 233.207 247.751 229.079 251.275 235.405C256.188 244.224 239.309 238.33 236.133 236.005ZM257.055 236.74C261.861 237.64 266.716 237.523 271.581 237.183C277.031 236.801 278.324 235.137 279.911 240.357C274.065 242.477 261.614 243.946 255.699 241.93C256.149 240.2 256.603 238.47 257.055 236.74ZM226.743 212.781C228.426 216.229 232.071 220.745 233.053 224.341C233.775 226.994 234.059 225.669 233.453 227.727C233.238 228.461 230.279 231.535 229.761 232.278C226.168 229.558 221.835 226.778 219.995 222.588C217.049 215.88 220.837 215.342 226.743 212.781ZM308.496 198.662C320.716 202.464 335.726 206.187 348.66 205.055C348.83 206.162 326.722 212.605 324.08 212.14C321.378 211.665 321.163 207.901 317.927 205.892C314.359 203.677 311.412 204.995 307.467 204.65L308.496 198.662ZM268.27 249.872C279.518 249.152 289.567 246.465 299.517 241.347C305.232 238.408 309.336 234.145 313.156 229.227C316.114 225.417 315.509 225.73 320.154 224.438C323.586 223.485 327.807 223.871 331.331 223.428C343.129 221.945 354.888 218.37 366.11 214.647C378.703 210.471 389.55 204.581 403.384 204.925C427.136 205.516 446.401 223.492 471.178 215.942C481.009 212.947 491.191 208.972 499.142 202.55C509.481 194.198 515.76 189.25 530.33 192.209C542.06 194.589 551.061 200.806 561.111 206.535C572.566 213.065 585.066 216.977 597.838 220.425C602.841 221.776 607.475 222.562 612.718 222.825C615.838 222.982 630.617 220.733 632.443 222.321C634.209 223.857 635.013 234.456 634.824 236.389C634.51 239.617 635.934 239.95 632.486 241.309C630.091 242.254 622.696 241.299 619.728 241.637C595.847 244.365 571.381 245.182 547.882 249.297C525.797 253.164 503.632 256.293 481.796 260.828C453.39 266.728 424.46 269.421 396.039 275.135C382.301 277.896 368.446 281.786 354.869 284.728C342.506 287.405 330.084 289.89 317.65 292.316C318.106 290.608 320.69 284.384 316.565 284.958C313.951 285.321 309.564 294.348 308.185 296.378C301.839 305.729 295.08 312.827 286.446 320.268C277.745 327.768 268.983 335.19 260.151 342.551C252.936 348.564 237.436 357.533 237.836 368.034C242.231 368.87 250.956 361.084 254.247 358.976C260.905 354.706 267.289 350.054 273.497 345.198C279.337 353.743 265.494 363.648 263.922 371.73C267.482 371.745 273.427 361.948 275.588 359.352C281.328 364.701 287.768 369.418 291.9 376.137C245.592 374.161 238 431.594 204.573 451.063C197.167 455.375 187.888 457.158 179.421 455.263C170.601 453.291 162.124 450.506 154.364 445.523C137.034 434.395 124.334 413 117.552 394.627C113.807 384.48 110.273 374.652 108.578 363.975C106.702 352.152 108.466 340.135 109.994 328.354C112.714 307.362 123.872 286.17 139.674 271.155C146.757 264.425 154.494 258.535 160.979 251.19C163.242 248.626 168.407 238.808 171.247 238.193C176.48 237.059 179.181 244.403 182.802 238.392C186.348 232.508 179.584 230.212 175.466 227.471C171.024 224.511 166.714 221.401 162.372 218.311C153.787 212.202 145.288 206.195 137.042 199.691C96.835 167.979 61.291 132.624 25.283 96.5887C32.025 94.9937 41.612 90.4077 48.466 91.6307C55.322 92.8557 61.413 97.7067 68.642 98.5107C75.684 99.2937 82.522 97.7737 89.052 95.5607C96.749 92.9507 101.96 89.5917 108.418 96.1037C118.793 106.568 124.504 121.107 135.396 131.008C146.404 141.014 161.812 146.858 176.145 149.876C189.415 152.67 207.819 151.35 217.544 161.796C219.733 164.147 221.685 165.82 221.81 169.333C222.03 175.58 220.613 171.103 218.605 174.972C215.333 181.27 214.055 189.128 213.315 196.088C211.824 210.176 213.708 225.607 224.995 235.317C237.154 245.774 252.192 250.177 268.27 249.872ZM268.913 227.055C260.681 231.255 244.035 225.781 237.456 220.66C228.504 213.69 227.797 201.56 229.231 191.421L241.721 194.444L247.047 195.733C246.885 197.202 247.127 198.573 247.77 199.846C251.692 204.872 253.593 202.375 257.852 198.016C266.968 188.685 275.057 178.166 278.774 165.762C282.939 170.626 287.642 173.764 294.316 173.088C297.24 172.792 308.453 169.302 305.558 164.185C304.638 162.558 295.52 164.607 292.465 164.453C286.085 164.13 283.085 164.253 280.75 158.253C278.806 153.259 279.493 151.206 285.49 150.291C293.104 149.128 293.322 153.649 298.747 155.769C312.522 161.154 303.116 139.713 305.082 133.674C298.311 131.67 291.162 130.278 285.175 126.459C291.809 127.219 298.118 129.436 304.543 131.049C303.996 123.142 288.308 121.459 282.441 118.975C288.781 118.132 294.805 122.305 301.168 122.042C307.113 121.797 315.45 119.299 321.186 117.397C327.084 115.442 331.71 109.993 337.401 114.736C341.131 117.846 346.137 126.316 347.332 130.824C343.62 130.289 334.876 129.567 333.845 133.78C332.52 139.191 343.445 136.042 346.811 136.928C351.922 138.274 350.355 139.759 352.209 144.809C354.035 149.782 357.313 153.761 362.499 155.823C356.734 158.924 355.147 158.868 356.309 164.605C357.451 170.246 356.697 176.583 356.139 182.861C352.709 181.457 349.014 181.004 345.332 180.636C344.615 185.19 351.771 187.117 355.457 187.383C353.522 193.377 353.45 193.188 346.83 193.17C343.122 193.159 339.402 192.946 335.703 192.767C328.172 192.401 320.863 191.057 313.435 189.864C310.6 189.407 306.585 187.859 303.762 188.17C298.588 188.738 299.594 189.297 300.449 193.705C301.607 199.681 300.302 204.205 298.801 210.69C307.656 207.672 300.544 216.907 296.366 218.808C288.137 222.55 278.065 226.556 268.913 227.055ZM753.16 588.225C746.892 591.351 740.971 594.297 735.26 598.298C729.58 602.278 723.52 608.973 716.327 610.258C707.724 611.798 705.653 607.333 703.524 600.741C701.132 593.327 698.942 589.961 692.142 585.895C680.108 578.699 666.012 573.957 652.861 568.777C647.831 566.797 647.451 567.176 648.941 562.079C649.839 559.002 650.936 555.979 652.114 552.989C654.291 547.475 656.676 541.634 660.319 536.822C681.173 550.513 706.045 566.383 731.717 569.676C742.141 571.013 752.414 573.358 762.638 574.246C767.7 574.688 771.848 575.969 776.307 578.146C781.3 580.581 789.559 581.44 793.155 585.446C779.656 585.356 766.507 587.079 753.16 588.225ZM241.717 606.17C245.897 607.891 240.252 617.766 239.047 621.878C237.235 628.055 235.522 634.258 233.695 640.431C229.827 653.501 226.182 666.623 222.512 679.744C198.324 666.617 172.443 659.105 145.58 652.825C118.817 646.568 91.48 642.115 64.134 637.833C49.191 635.491 33.517 632.294 19.68 626.206C11.077 622.421 12.759 618.927 12.9 610.546C13.032 602.678 14.269 594.658 15.475 586.867C17.753 572.147 20.16 556.1 26.105 542.27C31.898 528.795 39.649 515.838 47.101 503.146C55.945 488.085 63.477 471.867 75.017 458.496C87.043 444.562 99.948 431.923 112.992 418.952C120.8 433.758 131.942 451.716 146.342 461.037C162.186 471.289 187.11 476.56 205.127 467.979C223.274 459.336 234.001 441.607 245.3 426.159C256.19 411.269 265.653 395.164 284.952 389.852C305.365 384.233 326.857 391.882 346.758 396.672C369.449 402.136 391.651 409.974 413.706 417.378C451.996 430.235 489.981 442.001 527.303 457.322C573.239 476.179 619.236 494.888 663.634 516.963C654.029 530.698 646.584 543.213 641.158 559.01C636.933 571.309 634.352 584.333 633.364 597.634C628.196 592.492 624.248 586.377 619.032 581.173C613.132 575.285 606.205 570.754 599.264 566.139C586.699 557.783 573.821 550.219 559.962 543.864C528.504 529.439 495.076 519.504 461.816 509.224C454.281 506.894 445.412 504.188 437.602 502.898C430.966 501.803 425.072 499.88 418.316 498.282C402.996 494.662 387.507 491.342 372.056 488.72C342.366 483.683 312.073 478.315 281.972 474.834C261.562 472.472 240.262 468.644 219.292 470.688C215.748 471.034 212.278 471.733 208.709 471.623C207.714 471.592 206.531 470.12 205.501 470.221C203.521 470.417 201.399 472.631 199.378 473.293C194.815 474.784 188.188 473.858 185.702 477.615C183.711 480.624 184.44 483.007 187.405 484.99C183.837 489.521 176.855 493.696 172.072 497.259C167.774 500.462 163.72 503.909 159.385 506.996C154.728 510.313 149.085 513.444 144.209 516.829C137.847 521.244 132.412 526.899 126.403 531.853C115.618 540.743 104.795 548.486 93.43 556.819C87.31 561.307 81.476 565.533 74.827 569.205C71.191 571.213 62.951 576.713 67.252 581.707C71.544 586.69 80.151 579.322 84.839 578.792C90.235 578.18 97.512 581.55 102.894 582.342C117.136 584.433 131.424 586.273 145.67 588.534C161.932 591.114 178.024 594.598 194.362 596.742C202.8 597.849 211.236 598.918 219.72 599.682C224.095 600.075 230.28 599.484 234.391 600.88C237.501 599.976 238.856 600.859 238.451 603.531C239.214 604.779 240.301 605.658 241.717 606.171V606.17ZM692.346 234.043C683.448 233.986 674.622 234.499 665.714 234.423C662.284 234.393 659.334 235.085 657.945 232.717C656.249 229.823 657.031 222.264 656.741 218.951C667.143 219.784 676.688 220.042 687.072 219.133C698.194 218.16 708.989 214.987 720.152 214.3C717.774 215.202 715.051 220.114 716.602 222.504C718.147 224.883 720.67 222.735 723.116 221.658C732.56 217.498 740.426 211.354 751.036 214.041C741.268 219.078 731.999 227.156 721.799 230.164C712.18 233 702.477 233.967 692.346 234.044V234.043ZM31.51 70.2697C27.179 71.0777 18.73 75.3997 14.845 73.2227C10.101 70.5627 11.098 59.7797 10.925 55.5827C10.395 42.6817 9.413 24.9307 19.56 14.4727C21.4 26.8697 17.421 39.8317 17.706 52.3647C17.921 61.7697 21.474 56.6347 22.731 49.9777C23.881 43.8877 23.755 37.8797 25.323 31.8207C28.201 36.7267 28.871 43.3857 30.902 48.8027C33.462 55.6327 37.084 61.8297 40.734 68.1627C37.649 68.8327 34.58 69.5407 31.51 70.2697ZM650.097 239.777C650.15 243.389 650.665 246.784 646.143 247.116C640.156 247.554 642.12 241.455 642.5 237.606C644.652 237.897 649.586 237.297 650.097 239.776V239.777ZM34.012 76.1627C37.766 75.6987 38.336 74.8507 40.716 77.4737C42.228 79.1387 42.375 82.1597 41.063 83.2077C35.375 87.7577 34.477 78.7177 34.012 76.1627ZM30.502 84.5387C27.582 85.1127 24.722 86.6687 23.08 83.7717C20.673 79.5247 26.427 79.1697 29.579 77.9087L30.502 84.5387ZM214.079 484.139C246.381 483.376 278.203 488.437 309.909 494.009C337.954 498.935 365.793 503.041 393.222 509.224C448.499 521.686 503.869 535.631 555.177 559.618C567.642 565.445 580.09 571.269 591.58 578.358C597.755 582.166 604.045 585.932 609.892 590.228C613.108 592.59 616.436 594.921 619.452 597.51C622.212 599.882 623.78 603.154 626.261 605.475C627.429 606.567 632.461 610.603 633.953 611.057C637.159 612.033 635.889 612.111 639.13 609.895C645.904 605.265 647.262 599.093 649.304 591.669C650.741 586.442 649.638 584.711 654.359 584.889C656.761 584.979 660.377 587.421 662.603 588.345C669.793 591.33 677.563 593.708 684.465 597.269C690.044 600.147 694.508 603.849 696.898 609.549C699.72 616.279 701.36 621.774 709.922 622.529C725.194 623.875 733.969 608.651 747.028 603.528C760.995 598.048 778.82 599.126 793.568 598.95C798.938 598.885 804.787 599.402 809.91 600.126C817.149 601.149 825.713 605.08 833.226 602.581C841.873 599.705 841.743 587.421 836.013 582.076C830.023 576.488 821.134 575.722 813.473 573.867C797.983 570.118 783.895 561.572 768.084 558.947C752.357 556.336 735.694 555.768 720.361 551.01C712.548 548.584 704.957 546.692 697.533 543.28C688.283 539.028 678.323 536.262 669.186 532.083C672.33 526.561 673.181 521.436 673.373 515.249C673.5 511.12 674.172 511.117 671.305 509.387L669.601 510.271C667.8 511.551 666.517 510.966 665.749 508.517C653.069 500.827 641.349 492.564 627.819 485.884C605.126 474.679 581.103 465.628 558.417 454.955C515.316 434.679 467.311 422.98 421.968 408.125C394.538 399.14 366.453 391.779 338.348 385.152C333.44 383.991 328.488 383.025 323.503 382.257C315.02 380.951 317.026 380.873 312.747 374.348C307.257 365.975 298.542 357.042 289.697 351.854C284.242 348.654 281.915 349.134 282.085 342.134C282.215 336.784 283.683 336.838 288.058 333.257C293.006 329.205 297.602 324.71 301.78 319.932C306.55 314.48 308.686 308.3 312.676 302.696C317.5 295.922 332.419 297.072 340.77 295.892C353.85 294.046 367.147 292.725 380.031 289.873C406.051 284.115 432.205 282.101 458.548 278.075C485.029 274.028 511.502 270.338 537.985 266.672C547.492 265.356 557.121 264.225 566.575 262.594C579.812 260.309 593.741 260.078 607.17 257.941C614.084 256.841 622.552 252.936 629.507 253.269C636.972 253.628 630.297 253.543 635.207 256.109C637.411 257.263 639.96 258.294 642.5 258.427C646.5 258.637 650.532 256.924 652.98 253.87C657.059 248.78 655.092 244.88 663.405 244.238C668.878 243.816 675.265 245.928 680.826 246.205C686.275 246.478 691.941 247.268 697.392 247.108C708.293 246.786 721.285 245.828 731.184 241.168C741.674 236.232 751.037 229.646 762.073 225.448C767.611 223.34 775.49 222.446 779.203 217.351C782.302 213.098 783.26 204.447 778.508 200.959C771.218 195.609 757.084 203.705 749.018 201.683C744.894 200.649 748.298 199.403 745.179 197.963C743.247 197.07 743.537 196.936 741.244 196.613C735.591 195.813 726.332 199.771 720.584 200.712C709.244 202.565 698.002 205.394 686.671 207.127C680.201 208.117 673.623 208.365 667.139 209.417C661.492 210.334 656.851 212.547 652.753 208.011C651.025 206.098 651.553 204.126 648.783 203.128C646.299 202.235 639.164 203.517 636.764 204.438C634.143 205.442 633.557 206.891 631.448 208.036C631.395 210.204 630.484 210.853 628.713 209.981C627.067 209.857 625.411 209.945 623.787 210.244C609.393 210.304 595.067 205.838 581.976 200.564C560.282 191.826 533.346 167.088 508.463 180.544C502.341 183.854 498.323 189.375 492.363 192.962C487.067 196.146 480.295 198.999 474.341 200.795C462.443 204.385 450.616 203.935 438.831 200.219C424.459 195.686 412.885 190.939 397.397 191.46C383.047 191.942 371.595 201.848 357.539 202.243C360.973 196.728 361.609 190.393 361.972 184.137C362.209 180.045 359.924 169.335 362.4 166.023C365.133 162.365 386.477 160.886 374.573 150.148C370.677 146.631 363.485 147.905 359.456 144.022C355.389 140.104 355.309 133.976 353.141 129.084C350.687 123.549 346.64 118.977 342.492 114.56C340.736 112.69 339.55 111.503 338.55 109.255C337.389 106.646 338.162 104.442 336.308 101.693C330.046 92.4147 319.123 95.6447 309.617 96.8807C303.854 97.6307 296.874 96.9157 291.281 98.4887C286.786 99.7527 280.941 103.585 277.283 106.398C269.226 112.593 267.353 124.026 266.733 133.394C266.37 138.878 267.437 144.046 267.525 149.511C267.618 155.231 270.101 157.823 274.567 161.617C274.65 160.561 275.167 159.853 276.117 159.492C278.062 161.885 277.563 162.819 274.62 162.295C274.508 163.725 273.997 165.011 273.089 166.153C270.656 168.855 268.56 171.841 266.191 174.596C261.007 180.62 254.96 185.848 250.971 192.685C246.789 187.819 241.466 187.021 236.477 183.665C231.624 180.4 235.248 179.428 233.447 174.709C232.725 172.818 230.83 172.484 230.164 171.02C229.532 169.632 230.301 168.756 229.912 167.231C227.97 159.659 228.776 154.968 222.728 149.032C214.638 141.093 204.671 138.994 193.55 137.487C182.455 135.982 174.577 135.446 164.714 131.063C161.292 129.543 158.055 128.848 154.804 127.123C150.412 124.789 146.32 122.328 142.503 119.179C133.63 111.861 128.113 101.665 120.938 92.8707C115.194 85.8337 108.268 76.8237 97.902 78.6817C86.112 80.7967 75.722 87.9617 63.172 84.0987C58.516 82.6657 59.019 83.5467 57.172 79.0327C56.558 77.5297 56.162 76.0147 55.564 74.5367C53.326 69.0057 49.04 68.3127 46.382 63.8097C40.108 53.1777 36.671 39.9197 33.098 28.2507C31.438 22.8327 28.223 18.1327 26.263 12.9367C25.443 10.7647 25.815 1.08766 23.271 0.239663C15.064 -2.49534 8.42199 18.9967 6.92499 23.0617C3.01399 33.6847 -0.430963 45.6717 1.11304 57.0457C1.74804 61.7327 2.254 67.1617 3.508 71.7507C4.648 75.9167 4.894 75.6427 4.242 79.4187C3.58 83.2587 2.79199 85.5617 3.35999 89.5867C3.51999 90.7107 4.03101 94.8647 4.51501 95.4397C6.76401 98.1147 7.06898 96.2447 9.86798 97.3137C14.394 99.0437 15.513 100.53 18.718 104.586C26.73 114.725 35.094 124.895 43.753 134.521C58.943 151.407 74.917 166.544 91.968 181.561C108.703 196.301 126.198 211.256 145.195 223.296C149.811 226.223 157.4 228.79 161.115 232.629C165.185 236.834 159.015 238.659 154.845 241.641C146.555 247.565 138.032 253.631 130.804 260.539C115.394 275.264 106.594 296.96 101.196 316.663C98.386 326.916 97.81 338.67 96.746 349.289C95.499 361.745 97.043 375.376 100.972 387.225C102.462 391.719 104.216 396.121 105.662 400.634C106.327 402.712 109.596 409.164 108.709 411.563C107.244 415.525 97.613 420.338 94.25 423.092C89.654 426.859 84.95 430.751 81.099 435.239C64.713 454.332 51.313 474.369 39.276 496.334C27.034 518.675 15.479 538.834 10.649 563.942C9.38699 570.504 8.26401 577.072 6.93701 583.623C5.51101 590.673 6.88999 600.841 4.03699 607.281C2.27199 611.265 -1.03097 612.519 0.314026 618.027C1.47803 622.789 7.38801 631.244 10.601 634.995C17.916 643.534 31.271 646.897 41.815 649.992C54.612 653.749 68.3 655.482 81.477 657.618C128.945 665.315 175.466 673.723 219.402 693.451C217.924 695.606 216.731 700.261 219.731 701.745C223.716 703.716 225.671 697.863 227.043 695.276C231.033 687.749 232.222 678.013 234.606 669.765C240.42 649.642 244.836 629.31 249.57 608.968C265.728 612.369 282.088 614.176 298.162 617.33C305.576 618.785 313.089 618.921 320.555 619.839C328.572 620.824 329.085 623.347 328.452 630.999C327.057 647.867 320.322 664.051 316.48 680.455C314.615 688.411 311.353 695.987 309.579 703.905C309.002 706.484 309.628 713.424 307.81 715.348C307.888 715.266 301.688 716.496 300.71 716.743C301.236 706.778 300.07 697.001 300.568 687.055C301.08 676.779 302.485 663.305 300.188 653.351C298.098 644.301 290.129 634.734 281.332 630.916C273.669 627.588 258.459 622.251 250.185 627.184C248.731 628.051 245.229 630.74 246.045 632.824C247.15 635.638 259.397 637.795 261.885 638.667C271.62 642.077 281.915 648.056 287.369 656.723C292.276 664.522 290.315 676.576 290.151 685.518C290.059 690.601 289.401 695.322 290.016 700.386C290.887 707.553 291.341 710.148 288.41 716.336C284.976 723.584 287.098 734.177 297.385 731.57C303.538 730.01 303.784 726.654 307.489 723.002C308.89 721.62 310.466 722.232 311.839 720.489C313.679 718.152 313.669 712.981 314.601 710.031C317.581 700.59 321.8 691.411 324.951 681.912C329.19 669.141 332.659 656.212 335.697 643.137C338.057 632.971 340.617 622.677 335.71 612.784C331.354 604.002 320.684 604.655 311.837 604.339C291.349 603.609 270.173 599.167 249.267 598.095C247.764 598.017 244.626 598.532 243.277 597.905C241.414 597.04 240.71 594.523 238.299 592.915C233.692 589.84 224.579 588.771 219.254 587.827C207.179 585.683 195.167 583.942 183.164 581.707C169.364 579.136 155.692 576.064 141.877 573.727C128.651 571.489 115.291 571.068 101.907 569.547C123.141 555.852 141.841 539.158 162.27 524.321C171.744 517.441 180.522 510.673 189.024 502.718C192.564 499.406 196.067 496.185 199.282 492.575C200.986 490.661 202.492 487.005 204.658 485.669C207.382 483.989 210.488 484.438 214.079 484.139Z" fill="black"/>
<path fill-rule="evenodd" clip-rule="evenodd" d="M292.015 98.5877C299.039 97.9757 307.088 97.9317 313.905 96.3677C307.883 96.8887 297.528 96.5507 292.015 98.5877ZM678.05 208.336L687.015 207.546C683.964 207.102 680.982 207.437 678.05 208.336ZM494.017 273.372C492.02 273.544 490.024 273.715 488.04 273.889C490.04 273.718 492.029 273.545 494.017 273.372ZM550.537 265.387C549.206 265.521 547.875 265.656 546.557 265.787L550.537 265.387ZM300.559 695.336C300.674 696.666 300.791 697.996 300.905 699.321L300.559 695.336ZM214.359 484.551C213.358 484.635 212.359 484.717 211.369 484.803C212.373 484.721 213.366 484.636 214.359 484.551ZM695.809 204.8L699.745 203.896L695.809 204.799V204.8ZM228.389 484.281C227.724 484.367 227.059 484.455 226.403 484.538L228.389 484.281ZM366.089 165.04C365.426 165.142 364.762 165.244 364.109 165.347L366.089 165.04ZM141.871 573.91L145.907 574.148C144.561 574.068 143.216 573.988 141.871 573.91ZM607.149 258.472C606.48 258.517 605.813 258.561 605.153 258.607C605.824 258.563 606.486 258.517 607.149 258.472ZM711.231 231.919C708.146 232.191 705.271 232.298 702.312 233.24C705.211 233.019 708.641 233.354 711.232 231.919M679.238 233.395C677.083 232.771 673.483 233.035 671.258 233.978L679.238 233.395ZM269.162 227.48L262.187 228.067C264.576 228.636 266.918 228.652 269.162 227.48ZM759.43 587.779C757.337 586.8 755.389 587.481 753.452 588.292L759.43 587.779ZM634.745 233.452C634.777 235.124 634.807 236.797 634.84 238.462L634.745 233.452ZM268.114 249.923C269.45 249.837 270.784 249.753 272.107 249.665C270.767 249.75 269.441 249.836 268.114 249.923ZM690.025 219.01C691.361 218.938 692.698 218.866 694.022 218.798C692.682 218.872 691.353 218.941 690.025 219.011M360.408 283.691L355.468 284.596C357.153 284.518 358.94 285.048 360.408 283.691ZM634.706 240.703L629.716 241.04C631.441 241.918 633.099 241.712 634.706 240.703ZM305.605 144.8C305.482 143.471 305.36 142.142 305.235 140.818L305.605 144.8ZM303.848 187.942C302.448 187.219 301.116 187.294 299.863 188.286L303.848 187.942ZM331.542 481.543C330.202 481.513 328.861 481.483 327.519 481.451L331.542 481.543ZM360.134 487.083C358.792 487.045 357.452 487.006 356.109 486.969C357.451 487.006 358.791 487.045 360.134 487.083ZM331.792 289.343C330.476 289.608 329.162 289.875 327.847 290.141L331.792 289.343ZM84.1198 97.3927L86.1178 97.2807C85.4468 97.3197 84.7838 97.3557 84.1198 97.3927ZM679.076 220.064C679.741 219.987 680.406 219.912 681.063 219.837C680.395 219.912 679.736 219.987 679.076 220.064ZM397.752 274.53L393.808 275.343L397.752 274.531M650.339 240.118L650.352 243.128C650.347 242.122 650.342 241.12 650.339 240.118ZM664.287 234.617L660.262 234.497L664.288 234.617M627.698 240.924C626.316 240.359 624.959 240.118 623.711 241.241L627.698 240.924ZM167.118 321.672C162.303 322.415 160.025 323.502 158.723 328.169C158.119 330.334 159.861 334.406 159.274 335.772C158.494 337.585 157.327 336.625 155.965 338.344C150.989 344.629 148.392 357.144 158.107 361.481C161.747 357.05 160.48 351.905 157.986 347.326C163.232 346.116 165.952 345.933 167.572 340.681C167.766 340.051 168.16 332.338 168.32 332.171C169.405 331.039 173.797 332.182 175.302 331.338C178.627 329.47 180.197 323.22 179.36 319.704C178.207 314.855 173.082 312.378 169.186 309.658C181.686 309.965 193.178 319.404 205.679 320.036C209.154 320.211 210.027 321.758 211.234 317.837C212.304 314.354 211.146 314.807 208.788 313.075C204.114 309.645 196.944 307.385 191.425 305.429C183.409 302.587 169.585 295.931 160.905 299.653C156.574 301.509 153.499 307.204 154.827 311.653C156.123 315.993 163.601 319.061 167.118 321.672ZM162.114 257.047C158.537 262.622 156.966 268.511 160.835 274.396C155.334 273.946 149.209 272.941 145.625 277.92C140.442 285.116 145.798 287.474 151.838 287.884C156.688 288.214 166.314 291.345 170.565 288.075C177.552 282.7 170.599 272.525 167.907 267.378C172.346 267.518 183.551 268.829 181.617 260.52C180.224 254.53 166.473 256.047 162.114 257.047ZM219.382 293.161L223.713 298.261C221.521 298.751 218.543 296.89 216.61 296.107L219.382 293.161ZM225.962 286.293C231.108 285.571 236.662 292.295 237.847 284.781C238.54 280.378 234.417 274.738 229.569 274.061C221.113 272.88 209.291 292.054 207.177 298.663C205.229 304.754 207.307 303.913 211.779 306.169C215.651 308.122 220.686 312.656 225.713 311.283C230.309 310.027 231.728 302.665 231.707 298.828C231.675 292.914 228.119 291.01 225.962 286.293ZM199.766 286.27C198.989 288.647 193.373 299.762 198.356 299.735C201.126 299.721 206.351 283.681 207.098 281.847C208.122 279.329 210.279 275.857 209.899 273.004C209.242 268.071 209.519 269.628 206.174 270.164C199.658 271.213 194.272 281.13 188.114 283.644C190.664 274.176 194.49 263.797 191.872 254.129C184.536 260.908 184.218 274.872 182.209 284.148C181.597 286.971 180.141 292.754 183.23 294.668C186.727 296.833 197.406 287.772 199.766 286.27ZM246.577 306.69C244.147 301.586 241.532 295.615 250.511 297.504L246.577 306.689V306.69ZM249.487 285.342C241.784 284.73 237.401 294.837 236.604 300.712C235.968 305.397 240.844 321.749 247.418 316.813C249.868 314.973 251.245 309.947 252.848 307.405C255.044 303.925 258.118 300.605 259.784 296.863C263.312 288.935 256.986 285.363 249.486 285.343L249.487 285.342Z" fill="black"/>
<path fill-rule="evenodd" clip-rule="evenodd" d="M150.819 274.604L154.803 274.244C153.398 273.519 152.072 273.651 150.819 274.604ZM335.125 144.226C328.635 148.883 342.998 166.326 348.688 152.184C350.276 148.237 349.781 143.335 345.592 144.359C343.706 144.819 343.447 147.663 340.829 147.769C338.232 147.876 336.957 145.645 335.125 144.226ZM297.433 160.573C297.331 157.085 290.632 150.157 286.814 154.736C282.983 159.33 294.534 160.465 297.434 160.573" fill="black"/>
</svg>
